<?xml version="1.0" encoding="utf-8"?>
<!-- Generator: Adobe Illustrator 24.1.3, SVG Export Plug-In . SVG Version: 6.00 Build 0)  -->
<svg version="1.1" id="Layer_1" xmlns="http://www.w3.org/2000/svg" xmlns:xlink="http://www.w3.org/1999/xlink" x="0px" y="0px"
	 viewBox="0 0 1920 1080" style="enable-background:new 0 0 1920 1080;" xml:space="preserve">
<style type="text/css">
	.st0{fill:#FFB300;}
	.st1{fill:#AA2405;}
	.st2{fill:#EDA006;}
	.st3{fill:#CE3309;}
	.st4{fill:#8D07ED;}
	.st5{fill:#662D91;}
	.st6{fill:#9B3EED;}
	.st7{fill:#93278F;}
	.st8{fill:#29ABE2;}
</style>
<g id="Layer_9">
	<g>
		<path class="st0" d="M1211.14,654.61l-48.41,24.49l-11.65-23.04l48.41-24.49C1211.13,633.1,1214.38,641.29,1211.14,654.61z"/>
	</g>
</g>
<g id="Layer_8">
	<g>
		
			<rect x="1017.32" y="466.95" transform="matrix(0.9209 0.3898 -0.3898 0.9209 301.269 -357.2706)" class="st1" width="27.27" height="193.51"/>
	</g>
</g>
<g id="Layer_7">
	<g>
		<path class="st2" d="M1030.96,660.45c12.86,6.95,8.91,14.44,0,22.08h-50.65v-40.18h29.87v18.1H1030.96z"/>
	</g>
</g>
<g id="Layer_6">
	<g>
		
			<rect x="1015.38" y="550.37" transform="matrix(0.5 0.866 -0.866 0.5 1045.7212 -681.9297)" class="st3" width="196.1" height="28.57"/>
	</g>
</g>
<g id="Layer_5">
	<g>
		<g>
			<polygon class="st4" points="965.81,479.73 954.19,463.45 1000.56,430.32 1047.49,351.65 1064.67,361.9 1015.59,444.17 			"/>
		</g>
	</g>
</g>
<g id="Layer_4">
	<g id="XMLID_1_">
		<g>
			<path class="st5" d="M1091.06,324.09c4.98,31.1,5.46,79.05,0,173.25h-46.82c0,0-31.46-115.5-13.28-173.25H1091.06z"/>
		</g>
	</g>
</g>
<g id="Layer_3">
	<g>
		<g id="XMLID_2_">
			<g>
				<path class="st6" d="M1193.39,364.55l-62.24,76.79l-8.2-9.46c-0.46-0.53-45.73-52.64-68.84-68.88l12.06-17.18
					c19.06,13.38,49.7,46.56,64.37,62.93l46.54-57.42L1193.39,364.55z"/>
			</g>
		</g>
	</g>
</g>
<g id="Layer_2">
	<g id="XMLID_3_">
		<g>
			<path class="st7" d="M1052.88,217.47c33.27,0,60.25,21.17,60.25,47.29s-26.98,47.3-60.25,47.3s-60.24-21.18-60.24-47.3
				S1019.61,217.47,1052.88,217.47z M1091.06,264.76c0-16.55-17.09-29.97-38.18-29.97c-21.08,0-38.17,13.42-38.17,29.97
				c0,16.56,17.09,29.97,38.17,29.97C1073.97,294.73,1091.06,281.32,1091.06,264.76z"/>
			<path class="st8" d="M1052.88,234.79c21.09,0,38.18,13.42,38.18,29.97c0,16.56-17.09,29.97-38.18,29.97
				c-21.08,0-38.17-13.41-38.17-29.97C1014.71,248.21,1031.8,234.79,1052.88,234.79z"/>
		</g>
	</g>
</g>
</svg>
